<svg id="レイヤー_1" data-name="レイヤー 1" xmlns="http://www.w3.org/2000/svg" viewBox="0 0 841.89 841.89"><defs><style>.cls-1{fill:#fefefe;}.cls-2{fill:#0fa6ba;}.cls-2,.cls-3{fill-rule:evenodd;}.cls-3,.cls-5{fill:#fff;}.cls-4{fill:none;stroke:#0fa6ba;stroke-miterlimit:10;stroke-width:8px;}</style></defs><circle id="circle13" class="cls-1" cx="419.31" cy="420.95" r="390.16"/><path id="path15" class="cls-2" d="M420.94,23.08c219.74,0,397.87,178.13,397.87,397.87S640.68,818.81,420.94,818.81,23.08,640.68,23.08,421,201.21,23.08,420.94,23.08Zm-4,20.58c-1.87,0-3.73,0-5.59.08C205.6,46.71,39.57,214.57,39.57,421c0,206.68,166.4,374.64,372.48,377.25-101.9-2.57-183.78-86.09-183.78-188.59C228.27,505.5,312.79,421,416.93,421s188.66-84.52,188.66-188.66S521.06,43.66,416.93,43.66Z"/><path id="path17" class="cls-2" d="M357.38,269.43V128.78a23,23,0,0,1,22.7-22.67H453.4a21.33,21.33,0,0,1,15.74,6.74,21.86,21.86,0,0,1,6.63,15.93V269.43a22.64,22.64,0,0,1-22.67,22.63h-73a22.5,22.5,0,0,1-22.67-22.63Zm95.16-.86V129.93H380.9V268.57Z"/><path id="path19" class="cls-3" d="M384.17,694.61h36.1V556h-35.5a11.44,11.44,0,0,1-8.34-3.42,11.22,11.22,0,0,1-3.42-8.34,11.68,11.68,0,0,1,11.76-11.72h59V694.65h23.52V645.71a11.48,11.48,0,0,1,3.42-8.26A11.12,11.12,0,0,1,479,634a11.68,11.68,0,0,1,11.76,11.76v60.7a11.53,11.53,0,0,1-3.42,8.38,11.27,11.27,0,0,1-8.34,3.38H384.17a11.13,11.13,0,0,1-8.3-3.53,11.79,11.79,0,0,1-3.42-8.49,11.14,11.14,0,0,1,3.42-8.15,11.44,11.44,0,0,1,8.3-3.35v0Z"/><line class="cls-4" x1="135.25" y1="335.76" x2="135.25" y2="407.18"/><line class="cls-4" x1="163.7" y1="335.76" x2="163.7" y2="407.18"/><line class="cls-4" x1="85.17" y1="434.71" x2="85.17" y2="506.13"/><line class="cls-4" x1="113.62" y1="434.71" x2="113.62" y2="506.13"/><line class="cls-4" x1="183.33" y1="434.71" x2="183.33" y2="506.13"/><line class="cls-4" x1="211.78" y1="434.71" x2="211.78" y2="506.13"/><path class="cls-5" d="M762.64,482.71v-69.4H723.17V376.56H709.7V364.64h-4.08V354.33H694.9V338h-4.76v16.33H679.48v10.31h-4.09v11.92H661.93v19.2H619.74v86.95h-8.17v8.17H770.8v-8.17ZM639.81,468.08h-6.12V462h6.12Zm0-12.95h-6.12V449h6.12Zm0-12.95h-6.12v-6.12h6.12Zm0-13h-6.12V423.1h6.12Zm0-13h-6.12v-6.12h6.12Zm8.46,67.19h-7.93v-7.94h7.93Zm6.85-15.38H649V462h6.12Zm0-12.95H649V449h6.12Zm0-12.95H649v-6.12h6.12Zm0-13H649V423.1h6.12Zm0-13H649v-6.12h6.12Zm34.37-25.19h6.12v6.11h-6.12Zm0,12.94h6.12v6.13h-6.12Zm0,13h6.12v6.12h-6.12Zm0,12.95h6.12v6.12h-6.12Zm0,12.95h6.12V449h-6.12Zm0,13h6.12V462h-6.12ZM682.34,462h-6.12v-6.12h6.12Zm0-13h-6.12v-6.12h6.12Zm0-12.95h-6.12v-6.12h6.12Zm0-12.95h-6.12V417h6.12Zm0-13h-6.12V404h6.12Zm0-13h-6.12v-6.11h6.12Zm14.33,86.27h-7.94V470h7.94ZM708.88,462h-6.12v-6.12h6.12Zm0-13h-6.12v-6.12h6.12Zm0-12.95h-6.12v-6.12h6.12Zm0-12.95h-6.12V417h6.12Zm0-13h-6.12V404h6.12Zm0-13h-6.12v-6.11h6.12Zm33.49,85.52h-7.94V472.3h7.94Zm6-19.31H727.93v-3.56h20.42Zm0-10.43H727.93v-3.56h20.42Zm0-10.42H727.93V439h20.42Zm0-10.43H727.93v-3.56h20.42Z"/></svg>
